#!OML:ASF H:\Terrain\Patient Classification 1\Walking\liu\liu.ASF
:FULLY-SPECIFIED
:DEGREES
93
root 9.56264 16.5834 -19.3456 4.74486 -7.36734 2.4546
lowerback -4.80953 0.241741 -4.71552
upperback -1.60233 0.518708 1.6361
thorax 0.986753 0.266912 4.36956
lowerneck -21.7313 -4.10332 -12.6238
upperneck 21.7409 -4.87802 12.7918
head 11.3045 -1.71379 6.09938
rclavicle -6.0474e-015 -9.54166e-015
rhumerus -43.8496 14.6716 -88.8548
rradius 32.8751
rwrist -14.836
rhand -27.1741 -31.4751
rfingers 7.12502
rthumb -0.588279 -61.4541
lclavicle -6.0474e-015 -9.54166e-015
lhumerus -34.5593 -8.2821 89.1993
lradius 22.8151
lwrist -1.74421
lhand -3.20464 -18.6832
lfingers 7.12502
lthumb 22.5176 10.0238
rfemur -10.3717 -4.35891 14.9656
rtibia 63.7499
rfoot 4.54602 -7.62931
rtoes -9.47785
lfemur -21.594 8.91887 -27.9506
ltibia 25.9579
lfoot -10.5164 7.07471
ltoes 0.322303
94
root 9.57465 16.5968 -19.2386 4.82181 -6.80765 2.57214
lowerback -4.88243 -0.0366942 -4.87827
upperback -1.60339 0.157914 1.68711
thorax 1.0652 0.0844481 4.49574
lowerneck -21.3905 -4.06224 -12.7427
upperneck 21.6327 -4.8228 12.836
head 11.1943 -1.70346 6.13844
rclavicle 1.32999e-014 1.19271e-014
rhumerus -43.8599 14.6309 -88.6065
rradius 33.2044
rwrist -14.3915
rhand -28.6552 -25.624
rfingers 7.12502
rthumb -2.01871 -55.5941
lclavicle 1.32999e-014 1.19271e-014
lhumerus -33.5449 -8.85541 89.0657
lradius 22.4074
lwrist -1.71219
lhand -3.15942 -18.9288
lfingers 7.12502
lthumb 22.561 9.77299
rfemur -11.7157 -4.83907 15.0992
rtibia 64.7343
rfoot 2.71116 -8.53239
rtoes -8.61378
lfemur -21.0486 8.65963 -28.1431
ltibia 25.5141
lfoot -10.4096 6.85635
ltoes -0.0384028
95
root 9.58575 16.6084 -19.1326 4.90117 -6.27272 2.50736
lowerback -4.84965 -0.330935 -4.93303
upperback -1.64622 -0.235788 1.82245
thorax 1.04799 -0.110937 4.64531
lowerneck -21.2129 -3.93803 -12.5838
upperneck 21.5833 -4.67722 12.6861
head 11.1103 -1.64649 6.07166
rclavicle -1.00169e-014 4.77083e-015
rhumerus -44.0162 14.774 -88.478
rradius 33.5171
rwrist -14.2532
rhand -27.2083 -25.788
rfingers 7.12502
rthumb -0.621274 -55.7669
lclavicle -1.00169e-014 4.77083e-015
lhumerus -32.6751 -9.21214 88.7963
lradius 22.1511
lwrist -1.97007
lhand -3.22177 -19.2318
lfingers 7.12502
lthumb 22.5011 9.47718
rfemur -12.9952 -5.23564 15.4618
rtibia 65.4662
rfoot 1.26952 -9.26934
rtoes -8.38778
lfemur -20.515 8.36556 -28.119
ltibia 25.081
lfoot -10.5858 6.75119
ltoes 0.434499
96
root 9.59886 16.6137 -19.013 4.70859 -6.10235 2.42182
lowerback -5.01327 -0.479455 -4.79226
upperback -1.29832 -0.429529 1.87174
thorax 1.52123 -0.228814 4.6047
lowerneck -21.6758 -3.89278 -12.3082
upperneck 21.7046 -4.57461 12.3648
head 11.2124 -1.60148 5.9243
rclavicle 6.44652e-015 1.03368e-014
rhumerus -43.7173 15.0065 -88.5091
rradius 33.3826
rwrist -15.1739
rhand -28.5469 -22.9063
rfingers 7.12502
rthumb -1.91411 -52.8775
lclavicle 6.44652e-015 1.03368e-014
lhumerus -31.2539 -8.42674 87.9204
lradius 21.9083
lwrist -3.62818
lhand -2.77453 -19.5607
lfingers 7.12502
lthumb 22.9303 9.09568
rfemur -13.9648 -5.31865 15.7886
rtibia 65.948
rfoot -0.0316516 -9.60878
rtoes -11.0509
lfemur -19.6864 8.34795 -28.0524
ltibia 24.7817
lfoot -11.1217 6.71788
ltoes 0.324229
97
root 9.61309 16.6337 -18.8886 4.57808 -6.00245 2.39056
lowerback -5.93245 -0.573928 -4.31113
upperback -0.504305 -0.528486 1.61009
thorax 2.86226 -0.325391 4.0488
lowerneck -22.2806 -3.8836 -11.9476
upperneck 21.4908 -4.57469 12.2805
head 11.2376 -1.56185 5.82402
rclavicle -1.77664e-015 -1.19271e-014
rhumerus -42.5615 14.5674 -88.4328
rradius 33.739
rwrist -14.6874
rhand -27.3018 -25.188
rfingers 7.12502
rthumb -0.711559 -55.1665
lclavicle -1.77664e-015 -1.19271e-014
lhumerus -29.1568 -8.03266 86.8277
lradius 21.656
lwrist -4.74295
lhand -2.67027 -19.6449
lfingers 7.12502
lthumb 23.0304 8.99907
rfemur -14.9468 -5.35824 16.0393
rtibia 66.1843
rfoot -1.50085 -10.0367
rtoes -13.7059
lfemur -18.8895 8.29236 -28.0309
ltibia 24.5593
lfoot -11.598 6.67979
ltoes -0.659937
98
root 9.62727 16.6406 -18.7779 4.66641 -5.69891 2.25833
lowerback -5.05436 -0.852446 -4.77933
upperback -1.22063 -0.932346 2.24999
thorax 1.68848 -0.4874 4.95906
lowerneck -21.7949 -3.7137 -12.4
upperneck 22.0672 -4.1829 11.9281
head 11.3021 -1.48363 5.851
rclavicle 1.6232e-014 -2.38542e-015
rhumerus -44.1559 15.7793 -88.3546
rradius 34.2805
rwrist -16.106
rhand -28.6859 -24.1728
rfingers 7.12502
rthumb -2.04832 -54.1427
lclavicle 1.6232e-014 -2.38542e-015
lhumerus -29.5186 -7.32224 87.3661
lradius 21.551
lwrist -4.98882
lhand -3.49103 -19.4916
lfingers 7.12502
lthumb 22.2426 9.24849
rfemur -16.1277 -5.4844 16.435
rtibia 66.3653
rfoot -3.64916 -10.665
rtoes -10.8292
lfemur -18.4056 7.97608 -27.9251
ltibia 24.3115
lfoot -11.7974 6.7285
ltoes -0.928218
